<?xml version="1.0" encoding="UTF-8"?>
<svg id="Layer_1" data-name="Layer 1" xmlns="http://www.w3.org/2000/svg" viewBox="0 0 360 360">
  <defs>
    <style>
      .cls-1 {
        fill: #fff;
        stroke: #84bb41;
        stroke-miterlimit: 10;
        stroke-width: 6px;
      }

      .cls-2 {
        fill: #f9be3d;
      }

      .cls-3 {
        fill: #1383c6;
      }

      .cls-4 {
        fill: #84bb41;
      }
    </style>
  </defs>
  <circle class="cls-1" cx="180" cy="180" r="167.78"/>
  <g>
    <path class="cls-4" d="M103.49,232.23c-11.88,0-20.33-2.44-25.35-7.33-5.02-4.89-7.66-13.01-7.92-24.36-.05-4.36-.11-9.41-.16-15.14-.05-5.73-.08-11.68-.08-17.86s.03-12.14.08-17.9c.05-5.76.1-10.87.16-15.33.16-9.62,2.85-17.25,8.08-22.9,5.23-5.65,13.63-8.47,25.19-8.47s19.58,2.43,24.68,7.29c5.1,4.86,7.81,12.94,8.12,24.24.05,1.73.08,3.61.08,5.64s-.03,4.05-.08,6.07c-.05,2.02-.11,3.9-.16,5.64h-23.65c.05-1.94.11-4.24.16-6.9.05-2.65.08-5.31.08-7.96s-.03-4.95-.08-6.9c-.05-2.52-.88-4.47-2.48-5.83-1.6-1.37-3.82-2.05-6.66-2.05-3,0-5.32.68-6.98,2.05-1.66,1.37-2.54,3.31-2.64,5.83-.21,5.52-.35,11.48-.43,17.9-.08,6.41-.12,12.96-.12,19.63s.04,13.21.12,19.59c.08,6.39.22,12.31.43,17.78.11,2.58.99,4.56,2.64,5.95,1.66,1.39,3.98,2.09,6.98,2.09s5.49-.7,7.17-2.09c1.68-1.39,2.55-3.38,2.6-5.95.05-1.89.09-4.17.12-6.82.03-2.65.03-5.31,0-7.96-.03-2.65-.07-4.93-.12-6.82h23.65c.1,2.52.16,5.39.16,8.59s-.05,6.07-.16,8.59c-.32,11.35-3.06,19.47-8.24,24.36-5.18,4.89-13.57,7.33-25.19,7.33Z"/>
    <path class="cls-4" d="M148.04,230.65v-126.15h30.43c11.77,0,20.27,2.38,25.5,7.14,5.23,4.76,8.03,12.63,8.4,23.61.16,4.42.24,8.51.24,12.3s-.08,7.88-.24,12.3c-.37,10.93-3.17,18.79-8.4,23.57-5.23,4.78-13.73,7.17-25.5,7.17h-6.78v40.05h-23.65ZM171.69,169.79h6.78c3.31,0,5.81-.76,7.49-2.29,1.68-1.52,2.6-3.65,2.76-6.39.16-2.58.26-5.48.32-8.71.05-3.23.05-6.46,0-9.7-.05-3.23-.16-6.14-.32-8.71-.16-2.79-1.08-4.93-2.76-6.42-1.68-1.5-4.18-2.25-7.49-2.25h-6.78v44.47Z"/>
    <path class="cls-4" d="M222.22,230.65v-126.15h32.01c11.83,0,20.38,2.51,25.66,7.53,5.28,5.02,8.03,13.29,8.24,24.8.16,7.31.26,14.24.31,20.81.05,6.57.05,13.14,0,19.71-.05,6.57-.16,13.51-.31,20.81-.21,11.56-2.96,19.87-8.24,24.91s-13.84,7.57-25.66,7.57h-32.01ZM245.88,209.84h8.36c3.31,0,5.83-.76,7.57-2.29,1.73-1.52,2.63-3.71,2.68-6.54.16-5.62.28-11.22.35-16.79.08-5.57.12-11.14.12-16.71s-.04-11.16-.12-16.75-.2-11.18-.35-16.75c-.05-2.79-.95-4.93-2.68-6.42s-4.26-2.25-7.57-2.25h-8.36v84.52Z"/>
  </g>
  <polygon class="cls-2" points="191.09 74.53 179 68.44 166.68 74.08 168.73 60.7 159.57 50.73 172.93 48.54 179.58 36.75 185.79 48.78 199.06 51.46 189.53 61.08 191.09 74.53"/>
  <g>
    <polygon class="cls-2" points="227.67 74.84 219.17 70.57 210.53 74.53 211.97 65.13 205.53 58.12 214.91 56.59 219.58 48.3 223.94 56.76 233.27 58.63 226.58 65.39 227.67 74.84"/>
    <polygon class="cls-2" points="250.95 83.55 245.38 80.74 239.71 83.34 240.65 77.17 236.43 72.58 242.59 71.58 245.65 66.14 248.51 71.68 254.63 72.92 250.24 77.35 250.95 83.55"/>
  </g>
  <g>
    <polygon class="cls-2" points="132.53 74.84 141.03 70.57 149.67 74.53 148.23 65.13 154.67 58.12 145.29 56.59 140.62 48.3 136.26 56.76 126.93 58.63 133.62 65.39 132.53 74.84"/>
    <polygon class="cls-2" points="109.25 83.55 114.82 80.74 120.49 83.34 119.55 77.17 123.77 72.58 117.61 71.58 114.55 66.14 111.69 71.68 105.57 72.92 109.96 77.35 109.25 83.55"/>
  </g>
  <path class="cls-2" d="M75.81,264.98c16.53-16.82,41.53-22.47,64.46-19.85,4.56.45,9.25,1.35,13.73,2.36,4.21.9,8.72,1.55,13.01,2.1,17.47,2.78,34.73,7,52.47,5.95,19.97-.81,39.23-7.04,58.15-13.32,2.18-.65,4.35-1.31,6.55-1.85-7.98,4.28-15.8,8.79-24.13,12.59-11.41,5.28-23.81,9.14-36.37,10.92-19.51,3.07-39.23-1.09-58.23-4.53-4.51-.72-9.18-1.46-13.6-2.61-4.15-1.13-8.54-2.15-12.78-2.86-21.52-3.8-44.59-.75-63.27,11.11h0Z"/>
  <g>
    <path class="cls-3" d="M83.28,283.86c0-3.44,2.5-6.2,6.3-6.2,1.46,0,2.74.41,3.78,1.14l-1.24,1.83c-.66-.57-1.53-.91-2.51-.91-2.42,0-3.92,1.92-3.92,4.13s1.5,4.12,3.92,4.12c.98,0,1.85-.34,2.51-.91l1.24,1.83c-1.03.73-2.32,1.15-3.78,1.15-3.8,0-6.3-2.76-6.3-6.2Z"/>
    <path class="cls-3" d="M94.46,285.58c0-2.55,1.9-4.48,4.63-4.48s4.64,1.93,4.64,4.48-1.9,4.48-4.64,4.48-4.63-1.93-4.63-4.48ZM101.47,285.58c0-1.51-.99-2.62-2.38-2.62s-2.37,1.11-2.37,2.62.99,2.62,2.37,2.62,2.38-1.11,2.38-2.62Z"/>
    <path class="cls-3" d="M113.41,284.51v5.29h-2.19v-4.73c0-1.3-.51-2.13-1.68-2.13-.85,0-1.72.56-1.86,2.22v4.64h-2.19v-8.49h1.92l.25.97c.63-.76,1.49-1.19,2.61-1.19,1.46,0,3.14.82,3.14,3.42Z"/>
    <path class="cls-3" d="M120.24,283.01h-1.8v6.8s-2.18,0-2.18,0v-6.8h-1.12v-1.69h1.12v-2.45h2.18v2.45h1.8v1.69Z"/>
    <path class="cls-3" d="M121.61,278.56c0-.71.59-1.28,1.31-1.28s1.31.57,1.31,1.28-.59,1.28-1.31,1.28-1.31-.57-1.31-1.28ZM121.85,281.31h2.16v8.49h-2.16v-8.49Z"/>
    <path class="cls-3" d="M134.32,284.51v5.29h-2.19v-4.73c0-1.3-.51-2.13-1.68-2.13-.85,0-1.72.56-1.86,2.22v4.64h-2.19v-8.49h1.92l.25.97c.63-.76,1.49-1.19,2.61-1.19,1.46,0,3.14.82,3.14,3.42Z"/>
    <path class="cls-3" d="M136.55,286.03v-4.71h2.19v4.78c0,1.27.6,2.08,1.77,2.08s1.77-.8,1.77-2.08v-4.78h2.19v4.71c0,3.17-2,4-3.96,4s-3.96-.84-3.96-4Z"/>
    <path class="cls-3" d="M146.54,278.56c0-.71.59-1.28,1.31-1.28s1.31.57,1.31,1.28-.59,1.28-1.31,1.28-1.31-.57-1.31-1.28ZM146.78,281.31h2.16v8.49h-2.16v-8.49Z"/>
    <path class="cls-3" d="M159.25,284.51v5.29h-2.19v-4.73c0-1.3-.51-2.13-1.68-2.13-.85,0-1.72.56-1.86,2.22v4.64h-2.19v-8.49h1.92l.25.97c.63-.76,1.49-1.19,2.61-1.19,1.46,0,3.14.82,3.14,3.42Z"/>
    <path class="cls-3" d="M169.76,281.31v7.83c0,2.95-1.51,4.55-4.34,4.55-.69,0-1.42-.11-2.02-.31l.46-1.79c.44.19.97.29,1.43.29,1.77,0,2.28-1.18,2.28-3.02v-.05c-.64.68-1.53,1.13-2.71,1.13-2.22,0-3.95-1.66-3.95-4.42s1.74-4.42,3.95-4.42c1.26,0,2.21.52,2.85,1.29l.25-1.07h1.8ZM167.79,285.51c0-1.5-.95-2.6-2.34-2.6s-2.29,1.1-2.29,2.6.93,2.6,2.29,2.6,2.34-1.1,2.34-2.6Z"/>
    <path class="cls-3" d="M185.64,281.66c0,2.29-1.88,3.67-3.94,3.67h-2.27v4.48h-2.33v-11.85h4.6c2.06,0,3.94,1.39,3.94,3.69ZM183.23,281.66c0-1.23-.81-1.94-2.29-1.93h-1.52v3.83h1.52c1.48.03,2.29-.69,2.29-1.91Z"/>
    <path class="cls-3" d="M191.9,281.1c.81,0,1.34.29,1.34.29l-.62,1.82c-.24-.12-.54-.18-.84-.18-1.31,0-2.02,1.18-2.02,2.56v4.22h-2.19v-8.49h1.91l.28,1.17c.47-.83,1.09-1.39,2.14-1.39h0Z"/>
    <path class="cls-3" d="M193.79,285.58c0-2.55,1.9-4.48,4.63-4.48s4.64,1.93,4.64,4.48-1.9,4.48-4.64,4.48-4.63-1.93-4.63-4.48ZM200.8,285.58c0-1.51-.99-2.62-2.38-2.62s-2.37,1.11-2.37,2.62.99,2.62,2.37,2.62,2.38-1.11,2.38-2.62Z"/>
    <path class="cls-3" d="M207.42,280.02v1.3h1.73v1.69h-1.73v6.8h-2.19v-6.8h-1.1v-1.69h1.1v-1.07c0-2.24,1.21-3.38,2.84-3.38.73,0,1.33.15,2.01.56l-.91,1.6c-.28-.23-.57-.3-.82-.3-.66,0-.93.52-.93,1.29Z"/>
    <path class="cls-3" d="M218.69,286.09h-6.49c.16,1.38,1,2.31,2.41,2.31.89,0,1.54-.3,2.05-.88l1.48,1.21c-.8.84-1.98,1.33-3.5,1.33-2.9,0-4.74-1.93-4.74-4.48s1.87-4.48,4.47-4.48,4.3,1.74,4.3,4.4v.59ZM212.24,284.79h4.29c-.14-1.24-.89-2.05-2.14-2.05-1.16,0-1.92.83-2.14,2.05Z"/>
    <path class="cls-3" d="M220.99,287.37c.66.73,1.39,1,2.17,1,.92,0,1.4-.37,1.4-.93,0-1.53-4.32-.62-4.32-3.63,0-1.6,1.29-2.72,3.46-2.72,1.34,0,2.48.5,3.06,1.07l-1.19,1.36c-.49-.46-1.17-.74-1.78-.73-.83,0-1.28.37-1.28.95,0,1.73,4.41.75,4.41,3.7,0,1.54-1.3,2.62-3.52,2.62-1.7,0-3.01-.57-3.7-1.37l1.29-1.32Z"/>
    <path class="cls-3" d="M229.23,287.37c.66.73,1.39,1,2.17,1,.92,0,1.4-.37,1.4-.93,0-1.53-4.32-.62-4.32-3.63,0-1.6,1.29-2.72,3.46-2.72,1.34,0,2.48.5,3.06,1.07l-1.19,1.36c-.49-.46-1.17-.74-1.78-.73-.83,0-1.28.37-1.28.95,0,1.73,4.41.75,4.41,3.7,0,1.54-1.3,2.62-3.52,2.62-1.71,0-3.01-.57-3.7-1.37l1.29-1.32Z"/>
    <path class="cls-3" d="M236.67,278.56c0-.71.59-1.28,1.31-1.28s1.31.57,1.31,1.28-.59,1.28-1.31,1.28-1.31-.57-1.31-1.28ZM236.91,281.31h2.16v8.49h-2.16v-8.49Z"/>
    <path class="cls-3" d="M240.82,285.58c0-2.55,1.9-4.48,4.63-4.48s4.64,1.93,4.64,4.48-1.9,4.48-4.64,4.48-4.63-1.93-4.63-4.48ZM247.82,285.58c0-1.51-.99-2.62-2.38-2.62s-2.37,1.11-2.37,2.62.99,2.62,2.37,2.62,2.38-1.11,2.38-2.62Z"/>
    <path class="cls-3" d="M259.77,284.51v5.29h-2.19v-4.73c0-1.3-.51-2.13-1.68-2.13-.85,0-1.72.56-1.86,2.22v4.64h-2.19v-8.49h1.92l.25.97c.63-.76,1.49-1.19,2.61-1.19,1.46,0,3.14.82,3.14,3.42Z"/>
    <path class="cls-3" d="M270.27,281.32v8.49h-1.8l-.25-1.05c-.64.78-1.58,1.3-2.84,1.3-2.22,0-3.95-1.68-3.95-4.48s1.74-4.48,3.95-4.48c1.26,0,2.2.52,2.84,1.31l.26-1.08h1.79ZM268.3,285.58c0-1.52-.95-2.63-2.34-2.63s-2.29,1.12-2.29,2.63.93,2.63,2.29,2.63,2.34-1.12,2.34-2.63Z"/>
    <path class="cls-3" d="M272.69,277.22h2.19v12.59h-2.19v-12.59Z"/>
    <path class="cls-3" d="M136.81,303.4c0,3.36-2.33,5.93-6.39,5.93h-3.85v-11.85h3.85c4.06,0,6.39,2.56,6.39,5.92ZM134.41,303.4c0-2.49-1.52-3.99-4.27-3.99h-1.24v8h1.24c2.75,0,4.27-1.51,4.27-4.01Z"/>
    <path class="cls-3" d="M147.06,305.61h-6.49c.16,1.38,1,2.31,2.41,2.31.89,0,1.54-.3,2.05-.88l1.48,1.21c-.8.84-1.98,1.33-3.5,1.33-2.9,0-4.74-1.93-4.74-4.48s1.87-4.48,4.47-4.48,4.3,1.74,4.3,4.4v.59ZM140.62,304.31h4.29c-.14-1.24-.89-2.05-2.14-2.05-1.16,0-1.92.83-2.14,2.05Z"/>
    <path class="cls-3" d="M156.71,300.84l-3.69,8.49h-1.81l-3.68-8.49h2.33l2.26,5.92,2.27-5.92h2.33Z"/>
    <path class="cls-3" d="M165.94,305.61h-6.49c.16,1.38,1,2.31,2.41,2.31.89,0,1.54-.3,2.05-.88l1.48,1.21c-.8.84-1.98,1.33-3.5,1.33-2.9,0-4.74-1.93-4.74-4.48s1.87-4.48,4.47-4.48,4.3,1.74,4.3,4.4v.59ZM159.5,304.31h4.29c-.14-1.24-.89-2.05-2.14-2.05-1.16,0-1.92.83-2.14,2.05Z"/>
    <path class="cls-3" d="M167.69,296.74h2.19v12.59h-2.19v-12.59Z"/>
    <path class="cls-3" d="M171.64,305.1c0-2.55,1.9-4.48,4.63-4.48s4.64,1.93,4.64,4.48-1.9,4.48-4.64,4.48-4.63-1.93-4.63-4.48ZM178.64,305.1c0-1.51-.99-2.62-2.38-2.62s-2.37,1.11-2.37,2.62.99,2.62,2.37,2.62,2.38-1.11,2.38-2.62Z"/>
    <path class="cls-3" d="M191.51,305.1c0,2.8-1.73,4.48-3.95,4.48-1.17,0-2.07-.45-2.7-1.14v4.77h-2.19v-12.38h1.92l.18,1.02c.64-.75,1.56-1.25,2.79-1.25,2.21,0,3.95,1.68,3.95,4.48ZM189.27,305.1c0-1.52-.93-2.63-2.29-2.63s-2.34,1.12-2.34,2.63.95,2.63,2.34,2.63,2.29-1.12,2.29-2.63Z"/>
    <path class="cls-3" d="M205.99,304.33v5h-2.19v-4.78c0-1.23-.42-2.08-1.44-2.08-1.08,0-1.63.86-1.63,2.38v4.47h-2.19v-4.78c0-1.23-.41-2.08-1.44-2.08s-1.57.73-1.65,2.11v4.74h-2.19v-8.49h1.92l.24,1.06c.48-.86,1.36-1.28,2.3-1.28,1.03,0,1.9.41,2.43,1.27.53-.7,1.29-1.27,2.75-1.27,1.82,0,3.07,1.13,3.07,3.72Z"/>
    <path class="cls-3" d="M216.43,305.61h-6.49c.16,1.38,1,2.31,2.41,2.31.89,0,1.54-.3,2.05-.88l1.48,1.21c-.8.84-1.98,1.33-3.5,1.33-2.9,0-4.74-1.93-4.74-4.48s1.87-4.48,4.47-4.48,4.3,1.74,4.3,4.4v.59ZM209.98,304.31h4.29c-.14-1.24-.89-2.05-2.14-2.05-1.16,0-1.92.83-2.14,2.05Z"/>
    <path class="cls-3" d="M226.1,304.03v5.29h-2.19v-4.73c0-1.3-.51-2.13-1.68-2.13-.85,0-1.72.56-1.86,2.22v4.64h-2.19v-8.49h1.92l.25.97c.63-.76,1.49-1.19,2.61-1.19,1.46,0,3.14.82,3.14,3.42Z"/>
    <path class="cls-3" d="M232.93,302.53h-1.8v6.8s-2.18,0-2.18,0v-6.8h-1.12v-1.69h1.12v-2.45h2.18v2.45h1.8v1.69Z"/>
  </g>
</svg>