<?xml version="1.0" encoding="UTF-8"?>
<svg id="Layer_1" data-name="Layer 1" xmlns="http://www.w3.org/2000/svg" viewBox="0 0 1762.36 588.87">
  <defs>
    <style>
      .cls-1 {
        fill: #163a5a;
      }

      .cls-2 {
        fill: #939490;
      }

      .cls-3 {
        fill: #0082c9;
      }

      .cls-4 {
        fill: #83ba2d;
      }
    </style>
  </defs>
  <g>
    <g>
      <path class="cls-1" d="M66.89,122.52h77.51v22.56h-2.46c-4.91,0-8.05.2-9.41.58-1.36.39-2.51,1.21-3.45,2.46-.93,1.25-1.4,2.53-1.4,3.86,0,1.64.89,4.99,2.69,10.05l28.89,81.22,30.77-83.31c1.48-4.13,2.22-6.98,2.22-8.54,0-2.18-.72-3.78-2.17-4.8-1.44-1.01-4.55-1.52-9.31-1.52h-5.04v-22.56h63.13v22.56c-5.22,0-8.73.58-10.52,1.75-2.73,1.79-5.46,6.16-8.18,13.09l-48.87,125.67h-36.71l-49.68-126.49c-2.03-5.06-3.59-8.3-4.68-9.7-1.09-1.4-2.63-2.49-4.62-3.27-1.99-.78-4.89-1.13-8.71-1.05v-22.56Z"/>
      <path class="cls-1" d="M262.57,122.52h136.18l18.6,51.55-21.16,7.6c-3.59-8.42-7.77-15.2-12.57-20.34-4.79-5.14-10.09-8.55-15.9-10.23-5.81-1.67-12.57-2.51-20.28-2.51h-24.9v40.68h8.18c6.16,0,10.31-.45,12.45-1.34,2.14-.89,3.68-2.3,4.62-4.21.93-1.91,1.4-5.71,1.4-11.4v-6.2h20.81v69.09h-20.81v-7.05c0-4.78-.57-8.26-1.69-10.46-1.13-2.19-2.67-3.68-4.62-4.47-1.95-.78-6.27-1.17-12.98-1.17h-7.36v37.5c0,3.99.19,6.41.58,7.27.39.86,1.15,1.52,2.28,1.99,1.13.47,3.57.7,7.31.7h13.68c10.21,0,18.83-1.47,25.85-4.4,7.02-2.93,13.27-7.67,18.77-14.21,5.5-6.54,9.73-14.31,12.69-23.31l21.36,7.37-21.41,60.62h-141.09v-22.56h4.09c5.45,0,9.12-.39,10.99-1.17,1.87-.78,3.19-2.14,3.97-4.09.39-1.17.58-4.48.58-9.94v-88.85c0-4.83-.33-7.99-.99-9.47-.66-1.48-1.7-2.59-3.1-3.33-1.4-.74-4.17-1.11-8.3-1.11h-7.25v-22.56Z"/>
      <path class="cls-1" d="M435.12,122.52h66.16l47.82,95.16v-58.22c0-4.99-.27-8.1-.82-9.35-.78-1.87-1.83-3.17-3.16-3.92-1.33-.74-3.9-1.11-7.72-1.11h-7.95v-22.56h67.22v22.56h-7.44c-3.72,0-6.37.43-7.96,1.29-1.59.86-2.69,2.03-3.31,3.51-.62,1.48-.93,4.68-.93,9.59v126.14h-33.55l-60.56-120.18v84.05c0,4.83.29,7.91.87,9.24.58,1.33,1.63,2.38,3.14,3.16,1.51.78,4.12,1.17,7.84,1.17h7.79v22.56h-67.45v-22.56h6.97c3.87,0,6.53-.33,7.96-.99,1.43-.66,2.58-1.81,3.43-3.45.85-1.64,1.28-4.09,1.28-7.36v-93.52c0-3.58-.39-6.21-1.16-7.89-.77-1.67-1.82-2.88-3.14-3.62-1.32-.74-3.53-1.11-6.62-1.11h-8.72v-22.56Z"/>
      <path class="cls-1" d="M623.45,117.02h15.43l1.63,5.5h91.89l1.99-5.5h15.55l20.22,57.17-21.74,7.6c-4.83-9.51-8.3-15.7-10.4-18.59-4.13-5.69-8.88-10.17-14.26-13.44-4.05-2.49-8.07-3.74-12.04-3.74-1.87,0-3.16.45-3.86,1.34-.7.9-1.05,2.94-1.05,6.14v93.76c0,5.53.2,9,.59,10.4.39,1.4,1.06,2.51,2,3.33.94.82,2.23,1.37,3.88,1.64,1.65.27,6.04.41,13.17.41v22.56h-79.61v-22.56h4.82c5.33,0,8.74-.33,10.23-.99,1.49-.66,2.62-1.83,3.41-3.51.78-1.67,1.18-5.16,1.18-10.46v-95.86c0-2.73-.31-4.44-.94-5.14-.62-.7-1.95-1.05-3.97-1.05-4.05,0-8.57,1.52-13.56,4.56-4.99,3.04-9.43,7.33-13.33,12.86-1.56,2.18-4.87,8.3-9.94,18.35l-21.39-7.6,20.11-57.17Z"/>
      <path class="cls-1" d="M774.96,122.52h79.61v22.56h-7.83c-3.58,0-6.14.43-7.66,1.29-1.52.86-2.63,2.09-3.33,3.68-.7,1.6-1.05,4.85-1.05,9.76v59.39c0,11.07,1.11,19.33,3.34,24.78,2.22,5.46,5.58,9.61,10.07,12.45,4.49,2.85,9.93,4.27,16.34,4.27s12.1-1.56,17.1-4.68c5-3.12,8.57-7.07,10.72-11.87,2.15-4.79,3.22-12.72,3.22-23.79v-65.47c0-2.73-.35-4.68-1.05-5.85-.93-1.56-2.18-2.65-3.74-3.27-1.09-.47-3.86-.7-8.3-.7h-6.31v-22.56h67.34v22.56h-5.26c-5.22,0-8.46.31-9.7.94-1.87.94-3.24,2.3-4.09,4.09-.62,1.17-.94,4.4-.94,9.7v64.3c0,11.85-1.71,21.78-5.14,29.81-4.75,10.91-12.33,19.39-22.74,25.43-10.4,6.04-22.74,9.06-37,9.06-10.05,0-19.06-1.54-27-4.62-7.95-3.08-14.91-7.48-20.87-13.21-5.96-5.73-10.13-11.79-12.51-18.18-2.38-6.39-3.57-15.82-3.57-28.29v-63.01c0-5.77-.31-9.49-.93-11.16-.62-1.67-1.64-2.9-3.04-3.68-1.4-.78-4.13-1.17-8.18-1.17h-7.48v-22.56Z"/>
      <path class="cls-1" d="M956.28,122.52h100.61c6.47,0,13.55.58,21.23,1.75s14.62,3.74,20.82,7.72,11.02,9,14.45,15.08c3.43,6.08,5.15,12.94,5.15,20.58,0,12.39-4.42,22.43-13.27,30.1-8.85,7.68-19.31,12.68-31.39,15.02l33.55,39.04,1.4,1.75c2.18,2.65,4.17,4.62,5.96,5.9,1.79,1.29,3.58,2.2,5.38,2.75,1.79.55,4.29.82,7.48.82h7.01v22.56h-52.26l-52.37-70.26h-13.56v32.5c0,5.61.31,9.18.93,10.7.62,1.52,1.62,2.65,2.98,3.39,1.36.74,4.11,1.11,8.24,1.11h7.48v22.56h-79.84v-22.56h7.29c3.84,0,6.56-.41,8.17-1.23s2.8-2.05,3.59-3.68c.39-.93.59-3.86.59-8.77v-91.77c0-3.58-.29-6.14-.88-7.66-.59-1.52-1.55-2.51-2.88-2.98-1.88-.86-4.04-1.29-6.47-1.29l-3.29.12h-6.12v-23.26ZM1016.48,149.29v42.2h24.2c9.51,0,16.62-.88,21.33-2.63,4.71-1.75,8.26-4.27,10.64-7.54,2.38-3.27,3.57-7.25,3.57-11.92,0-4.29-1.11-7.97-3.33-11.05-2.22-3.08-5.38-5.36-9.47-6.84-4.09-1.48-10.78-2.22-20.05-2.22h-26.89Z"/>
      <path class="cls-1" d="M1216.95,122.52h36.63l48.94,125.9c2.65,6.7,5.01,10.83,7.07,12.39,2.06,1.56,5.86,2.3,11.4,2.22v22.56h-77.16v-22.56l4.68-.12c4.29,0,7.29-.56,9-1.7,1.71-1.13,2.57-2.51,2.57-4.15,0-1.4-.74-4.29-2.22-8.65l-4.86-14.84h-49.59l-6.11,16.48c-1.25,3.51-1.87,5.81-1.87,6.9,0,1.25.45,2.38,1.34,3.39.9,1.01,2.36,1.75,4.38,2.22,1.33.31,4.99.47,10.99.47v22.56h-63.13v-22.56c4.05,0,7.01-.35,8.88-1.05,1.87-.7,3.41-1.75,4.62-3.16,1.21-1.4,2.55-4.02,4.03-7.83l50.39-128.47ZM1212.06,210.31h32.39l-15.78-44.79-16.61,44.79Z"/>
    </g>
    <g>
      <path class="cls-4" d="M66.89,122.52h77.51v22.56h-2.46c-4.91,0-8.05.2-9.41.58-1.36.39-2.51,1.21-3.45,2.46-.93,1.25-1.4,2.53-1.4,3.86,0,1.64.89,4.99,2.69,10.05l28.89,81.22,30.77-83.31c1.48-4.13,2.22-6.98,2.22-8.54,0-2.18-.72-3.78-2.17-4.8-1.44-1.01-4.55-1.52-9.31-1.52h-5.04v-22.56h63.13v22.56c-5.22,0-8.73.58-10.52,1.75-2.73,1.79-5.46,6.16-8.18,13.09l-48.87,125.67h-36.71l-49.68-126.49c-2.03-5.06-3.59-8.3-4.68-9.7-1.09-1.4-2.63-2.49-4.62-3.27-1.99-.78-4.89-1.13-8.71-1.05v-22.56Z"/>
      <path class="cls-4" d="M262.57,122.52h136.18l18.6,51.55-21.16,7.6c-3.59-8.42-7.77-15.2-12.57-20.34-4.79-5.14-10.09-8.55-15.9-10.23-5.81-1.67-12.57-2.51-20.28-2.51h-24.9v40.68h8.18c6.16,0,10.31-.45,12.45-1.34,2.14-.89,3.68-2.3,4.62-4.21.93-1.91,1.4-5.71,1.4-11.4v-6.2h20.81v69.09h-20.81v-7.05c0-4.78-.57-8.26-1.69-10.46-1.13-2.19-2.67-3.68-4.62-4.47-1.95-.78-6.27-1.17-12.98-1.17h-7.36v37.5c0,3.99.19,6.41.58,7.27.39.86,1.15,1.52,2.28,1.99,1.13.47,3.57.7,7.31.7h13.68c10.21,0,18.83-1.47,25.85-4.4,7.02-2.93,13.27-7.67,18.77-14.21,5.5-6.54,9.73-14.31,12.69-23.31l21.36,7.37-21.41,60.62h-141.09v-22.56h4.09c5.45,0,9.12-.39,10.99-1.17,1.87-.78,3.19-2.14,3.97-4.09.39-1.17.58-4.48.58-9.94v-88.85c0-4.83-.33-7.99-.99-9.47-.66-1.48-1.7-2.59-3.1-3.33-1.4-.74-4.17-1.11-8.3-1.11h-7.25v-22.56Z"/>
      <path class="cls-4" d="M435.12,122.52h66.16l47.82,95.16v-58.22c0-4.99-.27-8.1-.82-9.35-.78-1.87-1.83-3.17-3.16-3.92-1.33-.74-3.9-1.11-7.72-1.11h-7.95v-22.56h67.22v22.56h-7.44c-3.72,0-6.37.43-7.96,1.29-1.59.86-2.69,2.03-3.31,3.51-.62,1.48-.93,4.68-.93,9.59v126.14h-33.55l-60.56-120.18v84.05c0,4.83.29,7.91.87,9.24.58,1.33,1.63,2.38,3.14,3.16,1.51.78,4.12,1.17,7.84,1.17h7.79v22.56h-67.45v-22.56h6.97c3.87,0,6.53-.33,7.96-.99,1.43-.66,2.58-1.81,3.43-3.45.85-1.64,1.28-4.09,1.28-7.36v-93.52c0-3.58-.39-6.21-1.16-7.89-.77-1.67-1.82-2.88-3.14-3.62-1.32-.74-3.53-1.11-6.62-1.11h-8.72v-22.56Z"/>
      <path class="cls-4" d="M623.45,117.02h15.43l1.63,5.5h91.89l1.99-5.5h15.55l20.22,57.17-21.74,7.6c-4.83-9.51-8.3-15.7-10.4-18.59-4.13-5.69-8.88-10.17-14.26-13.44-4.05-2.49-8.07-3.74-12.04-3.74-1.87,0-3.16.45-3.86,1.34-.7.9-1.05,2.94-1.05,6.14v93.76c0,5.53.2,9,.59,10.4.39,1.4,1.06,2.51,2,3.33.94.82,2.23,1.37,3.88,1.64,1.65.27,6.04.41,13.17.41v22.56h-79.61v-22.56h4.82c5.33,0,8.74-.33,10.23-.99,1.49-.66,2.62-1.83,3.41-3.51.78-1.67,1.18-5.16,1.18-10.46v-95.86c0-2.73-.31-4.44-.94-5.14-.62-.7-1.95-1.05-3.97-1.05-4.05,0-8.57,1.52-13.56,4.56-4.99,3.04-9.43,7.33-13.33,12.86-1.56,2.18-4.87,8.3-9.94,18.35l-21.39-7.6,20.11-57.17Z"/>
      <path class="cls-4" d="M774.96,122.52h79.61v22.56h-7.83c-3.58,0-6.14.43-7.66,1.29-1.52.86-2.63,2.09-3.33,3.68-.7,1.6-1.05,4.85-1.05,9.76v59.39c0,11.07,1.11,19.33,3.34,24.78,2.22,5.46,5.58,9.61,10.07,12.45,4.49,2.85,9.93,4.27,16.34,4.27s12.1-1.56,17.1-4.68c5-3.12,8.57-7.07,10.72-11.87,2.15-4.79,3.22-12.72,3.22-23.79v-65.47c0-2.73-.35-4.68-1.05-5.85-.93-1.56-2.18-2.65-3.74-3.27-1.09-.47-3.86-.7-8.3-.7h-6.31v-22.56h67.34v22.56h-5.26c-5.22,0-8.46.31-9.7.94-1.87.94-3.24,2.3-4.09,4.09-.62,1.17-.94,4.4-.94,9.7v64.3c0,11.85-1.71,21.78-5.14,29.81-4.75,10.91-12.33,19.39-22.74,25.43-10.4,6.04-22.74,9.06-37,9.06-10.05,0-19.06-1.54-27-4.62-7.95-3.08-14.91-7.48-20.87-13.21-5.96-5.73-10.13-11.79-12.51-18.18-2.38-6.39-3.57-15.82-3.57-28.29v-63.01c0-5.77-.31-9.49-.93-11.16-.62-1.67-1.64-2.9-3.04-3.68-1.4-.78-4.13-1.17-8.18-1.17h-7.48v-22.56Z"/>
      <path class="cls-4" d="M956.28,122.52h100.61c6.47,0,13.55.58,21.23,1.75s14.62,3.74,20.82,7.72,11.02,9,14.45,15.08c3.43,6.08,5.15,12.94,5.15,20.58,0,12.39-4.42,22.43-13.27,30.1-8.85,7.68-19.31,12.68-31.39,15.02l33.55,39.04,1.4,1.75c2.18,2.65,4.17,4.62,5.96,5.9,1.79,1.29,3.58,2.2,5.38,2.75,1.79.55,4.29.82,7.48.82h7.01v22.56h-52.26l-52.37-70.26h-13.56v32.5c0,5.61.31,9.18.93,10.7.62,1.52,1.62,2.65,2.98,3.39,1.36.74,4.11,1.11,8.24,1.11h7.48v22.56h-79.84v-22.56h7.29c3.84,0,6.56-.41,8.17-1.23s2.8-2.05,3.59-3.68c.39-.93.59-3.86.59-8.77v-91.77c0-3.58-.29-6.14-.88-7.66-.59-1.52-1.55-2.51-2.88-2.98-1.88-.86-4.04-1.29-6.47-1.29l-3.29.12h-6.12v-23.26ZM1016.48,149.29v42.2h24.2c9.51,0,16.62-.88,21.33-2.63,4.71-1.75,8.26-4.27,10.64-7.54,2.38-3.27,3.57-7.25,3.57-11.92,0-4.29-1.11-7.97-3.33-11.05-2.22-3.08-5.38-5.36-9.47-6.84-4.09-1.48-10.78-2.22-20.05-2.22h-26.89Z"/>
      <path class="cls-4" d="M1216.95,122.52h36.63l48.94,125.9c2.65,6.7,5.01,10.83,7.07,12.39,2.06,1.56,5.86,2.3,11.4,2.22v22.56h-77.16v-22.56l4.68-.12c4.29,0,7.29-.56,9-1.7,1.71-1.13,2.57-2.51,2.57-4.15,0-1.4-.74-4.29-2.22-8.65l-4.86-14.84h-49.59l-6.11,16.48c-1.25,3.51-1.87,5.81-1.87,6.9,0,1.25.45,2.38,1.34,3.39.9,1.01,2.36,1.75,4.38,2.22,1.33.31,4.99.47,10.99.47v22.56h-63.13v-22.56c4.05,0,7.01-.35,8.88-1.05,1.87-.7,3.41-1.75,4.62-3.16,1.21-1.4,2.55-4.02,4.03-7.83l50.39-128.47ZM1212.06,210.31h32.39l-15.78-44.79-16.61,44.79Z"/>
    </g>
  </g>
  <g>
    <path class="cls-3" d="M168.15,411.83v12.52h-43.22v-74.95h14.76v62.43h28.46Z"/>
    <path class="cls-3" d="M203.4,361.61v19.98h27.22v10.57h-27.22v19.98h33.08v12.21h-47.83v-74.95h47.83v12.21h-33.08Z"/>
    <path class="cls-3" d="M303.06,406.63l-29.82.04-6.32,17.68h-15.87l29.58-74.95h15.04l29.58,74.95h-15.87l-6.33-17.72ZM299.4,396.39l-11.24-31.45-11.24,31.45h22.48Z"/>
    <path class="cls-3" d="M362.98,393.99h-4.88v30.36h-14.76v-74.95h26.77c13.59,0,26.12,7.75,26.12,22.41,0,11.47-7.93,18.14-18.01,20.81l24.44,31.73h-17.98l-21.7-30.36ZM358.1,382.91h8.95c9.01,0,13.96-3.93,13.96-10.95s-4.94-11.27-14.62-11.27h-8.28v22.22Z"/>
    <path class="cls-3" d="M487.92,349.4v74.95h-13.69l-36.93-51.87v51.87h-14.22v-74.95h13.69l36.93,51.84v-51.84h14.22Z"/>
    <path class="cls-3" d="M530.13,424.35h-14.76v-74.95h14.76v74.95Z"/>
    <path class="cls-3" d="M622.48,349.4v74.95h-13.69l-36.93-51.87v51.87h-14.22v-74.95h13.69l36.93,51.84v-51.84h14.22Z"/>
    <path class="cls-3" d="M723.79,382.83v6.75c0,19.67-13.22,36.39-36.98,36.39s-40.4-17.5-40.4-39.39,15.71-39.08,40.4-39.08c14.27,0,22.56,6.15,23.88,7.16l-7.75,11.17c-2.87-2.29-8.43-5.23-16.43-5.22-15.15.03-24.87,11.43-24.87,25.97s9.48,26.28,24.87,26.28c12.41,0,21.13-7.12,22.3-19.32h-18.88v-10.71h33.87Z"/>
    <path class="cls-3" d="M808.44,425.96c-12.23,0-21.66-3.69-29.22-11.47l9.58-9.89c5.53,6.64,11.93,9.01,18.44,9.01s12.52-3.22,12.52-9.58c0-6.73-6.17-9.66-13.56-12.09-13.65-4.36-21.99-10.05-21.99-22.97s12.3-21.47,25.67-21.47c10.81,0,18.36,3.87,24.36,9.04l-9,9.69c-4.89-4.39-9.36-6.37-14.87-6.37-6.1,0-11.02,3.55-11.02,8.87s3.86,8.33,14.62,12c11.95,3.91,21.35,10.77,21.35,23.03,0,15.7-14.3,22.21-26.88,22.21h0Z"/>
    <path class="cls-3" d="M853.93,386.69c0-21.8,16.04-39.2,40.36-39.2s40.36,17.4,40.36,39.2-16.06,39.27-40.36,39.27-40.36-17.53-40.36-39.27ZM894.29,412.85c15.46,0,25.13-12.23,25.13-26.17s-9.63-26.09-25.13-26.09-25.13,12.04-25.13,26.09,9.63,26.17,25.13,26.17h0Z"/>
    <path class="cls-3" d="M1001.84,411.83v12.52h-43.22v-74.95h14.76v62.43h28.46Z"/>
    <path class="cls-3" d="M1051.87,425.96c-17.62,0-30.13-9.26-30.13-30.8v-45.76h14.76v44.51c0,13.57,6.44,18.94,15.37,18.94s15.37-5.37,15.37-18.94v-44.51h14.76v45.76c0,21.54-12.51,30.8-30.13,30.8h0Z"/>
    <path class="cls-3" d="M1155.74,361.82h-20.16v62.54h-14.76v-62.54h-20.16v-12.42h55.07v12.42Z"/>
    <path class="cls-3" d="M1189.79,424.35h-14.76v-74.95h14.76v74.95Z"/>
    <path class="cls-3" d="M1213.8,386.69c0-21.8,16.04-39.2,40.36-39.2s40.36,17.4,40.36,39.2-16.06,39.27-40.36,39.27-40.36-17.53-40.36-39.27ZM1254.16,412.85c15.46,0,25.13-12.23,25.13-26.17s-9.63-26.09-25.13-26.09-25.13,12.04-25.13,26.09,9.63,26.17,25.13,26.17h0Z"/>
    <path class="cls-3" d="M1383.33,349.4v74.95h-13.69l-36.93-51.87v51.87h-14.22v-74.95h13.69l36.93,51.84v-51.84h14.22Z"/>
    <path class="cls-3" d="M1434.14,425.96c-12.23,0-21.66-3.69-29.22-11.47l9.58-9.89c5.53,6.64,11.93,9.01,18.44,9.01s12.52-3.22,12.52-9.58c0-6.73-6.17-9.66-13.56-12.09-13.65-4.36-21.99-10.05-21.99-22.97s12.3-21.47,25.67-21.47c10.81,0,18.36,3.87,24.36,9.04l-9,9.69c-4.89-4.39-9.36-6.37-14.87-6.37-6.1,0-11.02,3.55-11.02,8.87s3.86,8.33,14.62,12c11.95,3.91,21.35,10.77,21.35,23.03,0,15.7-14.3,22.21-26.88,22.21h0Z"/>
  </g>
  <g>
    <path class="cls-2" d="M865.58,488.74h-21.15l-3.11,17.83h24.6l-.97,5.43h-31.06l8.74-50.31h30.72l-.97,5.42h-24.22l-2.8,16.21h21.14l-.93,5.42Z"/>
    <path class="cls-2" d="M884.61,474.57l-.79,4.18c3.13-3.32,6.92-4.93,11.37-4.84,2.37.05,4.38.59,6.03,1.62,1.65,1.04,2.78,2.5,3.4,4.39,3.5-4.1,7.64-6.1,12.4-6.01,3.73.09,6.48,1.35,8.26,3.77,1.77,2.42,2.43,5.67,1.97,9.74l-4.11,24.57h-6.22l4.08-24.63c.14-1.2.14-2.29,0-3.28-.44-3.13-2.49-4.73-6.15-4.8-2.28-.04-4.35.66-6.2,2.12-1.85,1.46-3.05,3.38-3.58,5.75l-4.25,24.84h-6.29l4.15-24.6c.3-2.56-.09-4.53-1.16-5.91-1.07-1.38-2.74-2.1-4.99-2.14-3.89-.09-6.99,1.68-9.29,5.32l-4.73,27.33h-6.25l6.5-37.38,5.87-.04Z"/>
    <path class="cls-2" d="M966.64,493.47c-.46,3.8-1.49,7.22-3.07,10.26-1.59,3.04-3.56,5.31-5.91,6.82-2.35,1.51-4.95,2.23-7.81,2.16-4.33-.09-7.65-1.55-9.95-4.39l-3.35,18.04h-6.25l8.98-51.76,5.67-.04-.69,4.18c3.09-3.32,6.78-4.93,11.09-4.84,3.59.09,6.39,1.42,8.4,3.97,2,2.56,3.06,6.08,3.18,10.57.02,1.47-.03,2.9-.17,4.28l-.1.73ZM960.49,492.76l.17-2.9c0-3.36-.64-5.93-1.92-7.71s-3.13-2.72-5.54-2.81c-3.62-.09-6.74,1.62-9.36,5.14l-3.14,17.91c1.4,3.31,3.93,5.02,7.57,5.11,3.11.07,5.75-1.14,7.93-3.64s3.61-6.19,4.3-11.1Z"/>
    <path class="cls-2" d="M992.41,473.92c3.13.05,5.82.9,8.05,2.56,2.23,1.66,3.89,3.95,4.96,6.86s1.43,6.1,1.09,9.55l-.07.76c-.44,3.64-1.52,6.93-3.25,9.87-1.73,2.94-3.96,5.22-6.7,6.86-2.74,1.64-5.75,2.41-9.02,2.32-3.11-.05-5.79-.9-8.03-2.56-2.25-1.66-3.89-3.91-4.92-6.77-1.04-2.86-1.41-6-1.11-9.43.35-3.87,1.39-7.35,3.14-10.44,1.75-3.09,4-5.47,6.75-7.17,2.75-1.69,5.79-2.49,9.1-2.4ZM979.7,493.96c-.16,1.45-.16,2.96,0,4.53.23,2.72,1.04,4.88,2.44,6.5,1.39,1.61,3.25,2.45,5.58,2.52,2.07.07,3.98-.44,5.74-1.54,1.75-1.09,3.22-2.75,4.42-4.96,1.2-2.21,1.97-4.66,2.32-7.36.18-2.12.22-3.9.1-5.36-.28-2.79-1.12-4.99-2.52-6.6-1.41-1.61-3.27-2.46-5.6-2.56-3.23-.07-5.97,1.2-8.22,3.8-2.26,2.6-3.65,6.01-4.18,10.23l-.07.79Z"/>
    <path class="cls-2" d="M1044.69,503.15l11.92-28.54h6.46l-17.03,37.38h-5.08l-3.87-28.26-13.47,28.26h-5.08l-4.04-37.38h5.98l2.28,27.85,13.27-27.85h5.04l3.63,28.54Z"/>
    <path class="cls-2" d="M1079.24,512.68c-4.65-.09-8.29-1.81-10.92-5.15-2.63-3.34-3.73-7.61-3.32-12.82l.17-1.49c.39-3.71,1.49-7.09,3.3-10.16,1.81-3.06,4.01-5.37,6.62-6.93,2.6-1.55,5.41-2.3,8.43-2.23,3.85.09,6.86,1.37,9.05,3.84,2.19,2.46,3.39,5.8,3.59,10.02.07,1.5.02,2.99-.14,4.49l-.38,2.87h-24.43c-.42,3.39.14,6.27,1.67,8.64,1.53,2.37,3.82,3.6,6.86,3.7,3.69.09,7.09-1.57,10.23-4.97l3.59,3.04c-1.57,2.26-3.59,4.03-6.06,5.3-2.48,1.28-5.23,1.89-8.27,1.85ZM1083.21,479.13c-2.58-.07-4.83.81-6.75,2.63-1.92,1.82-3.45,4.53-4.58,8.12l18.17.04.14-.55c.37-2.9-.1-5.32-1.4-7.24-1.3-1.92-3.16-2.92-5.58-2.99Z"/>
    <path class="cls-2" d="M1123.02,480.31l-2.94-.31c-4.01,0-7.16,1.81-9.47,5.42l-4.59,26.57h-6.25l6.5-37.38,6.05-.04-.93,4.35c2.65-3.48,5.77-5.17,9.36-5.08.76,0,1.75.17,2.97.52l-.69,5.94Z"/>
    <path class="cls-2" d="M1130.1,511.99h-6.22l6.5-37.38h6.22l-6.5,37.38ZM1135.25,460.96c1.06-.04,1.94.27,2.64.95.7.68,1.05,1.57,1.05,2.68-.02,1.08-.38,1.97-1.05,2.66-.68.69-1.56,1.06-2.64,1.11-1.08.05-1.97-.26-2.66-.93-.69-.67-1.03-1.54-1-2.62.02-1.08.37-1.98,1.04-2.7.67-.71,1.54-1.09,2.63-1.14Z"/>
    <path class="cls-2" d="M1152.73,474.57l-.9,4.73c3.36-3.69,7.19-5.48,11.47-5.39,3.52.09,6.13,1.31,7.81,3.66,1.68,2.35,2.3,5.66,1.87,9.92l-4.08,24.5h-6.25l4.11-24.57c.14-1.13.15-2.18.03-3.14-.39-3.22-2.29-4.87-5.7-4.94-3.75-.07-7.05,1.93-9.88,6l-4.63,26.65h-6.25l6.5-37.38,5.91-.04Z"/>
    <path class="cls-2" d="M1180.37,493.23c.55-4.08,1.65-7.62,3.3-10.62,1.65-3.01,3.65-5.23,6.01-6.67,2.36-1.44,4.95-2.12,7.76-2.05,4.33.09,7.6,1.73,9.81,4.91l1.24-4.18h5.74l-6.22,36.59c-.67,4.77-2.6,8.59-5.8,11.45s-7.15,4.23-11.85,4.09c-2.53-.04-4.96-.64-7.27-1.79-2.31-1.15-4.14-2.73-5.48-4.73l3.56-3.84c2.26,3.34,5.24,5.06,8.95,5.15,2.97.09,5.49-.74,7.55-2.49,2.06-1.75,3.43-4.24,4.09-7.46l.69-3.32c-3.04,3.04-6.6,4.52-10.68,4.42-2.33-.07-4.35-.7-6.06-1.88-1.72-1.19-3.05-2.9-3.99-5.15-.95-2.25-1.46-4.75-1.55-7.52-.05-1.36.02-2.99.21-4.91ZM1186.42,496.77c-.07,3.29.5,5.84,1.71,7.64,1.21,1.8,3.03,2.75,5.48,2.85,3.73.09,6.94-1.74,9.64-5.49l2.94-17.15c-1.38-3.4-3.88-5.18-7.5-5.31-3.39-.09-6.17,1.29-8.34,4.14-2.18,2.85-3.46,6.71-3.85,11.56l-.07,1.76Z"/>
    <path class="cls-2" d="M1252.65,461.69l8.81,40.98,23.08-40.98h8.53l-8.74,50.31h-6.46l3.46-19.9,4.11-20.25-22.8,40.15h-4.98l-8.98-40.94-3.11,21.7-3.35,19.25h-6.5l8.74-50.31h8.19Z"/>
    <path class="cls-2" d="M1301.78,511.99h-6.22l6.5-37.38h6.22l-6.5,37.38ZM1306.93,460.96c1.06-.04,1.94.27,2.64.95.7.68,1.05,1.57,1.05,2.68-.02,1.08-.38,1.97-1.05,2.66-.68.69-1.56,1.06-2.64,1.11-1.08.05-1.97-.26-2.66-.93-.69-.67-1.03-1.54-1-2.62.02-1.08.37-1.98,1.04-2.7.67-.71,1.54-1.09,2.63-1.14Z"/>
    <path class="cls-2" d="M1324.41,474.57l-.9,4.73c3.36-3.69,7.19-5.48,11.47-5.39,3.52.09,6.13,1.31,7.81,3.66,1.68,2.35,2.3,5.66,1.87,9.92l-4.08,24.5h-6.25l4.11-24.57c.14-1.13.15-2.18.03-3.14-.39-3.22-2.29-4.87-5.7-4.94-3.75-.07-7.05,1.93-9.88,6l-4.63,26.65h-6.25l6.5-37.38,5.91-.04Z"/>
    <path class="cls-2" d="M1352.02,493.23c.46-3.8,1.51-7.23,3.14-10.3,1.64-3.06,3.65-5.36,6.05-6.88,2.4-1.52,5.03-2.25,7.91-2.18,4.17.09,7.37,1.61,9.6,4.56l3.59-19.52h6.25l-9.19,53.07h-5.7l.66-4.01c-2.95,3.22-6.59,4.79-10.92,4.7-3.46-.09-6.21-1.45-8.26-4.06-2.05-2.61-3.16-6.12-3.32-10.52-.07-1.36-.01-2.98.17-4.87ZM1358.03,496.8c-.07,3.29.52,5.84,1.76,7.66,1.24,1.82,3.06,2.75,5.46,2.79,3.62.16,6.83-1.66,9.64-5.45l2.97-17.25c-1.38-3.4-3.89-5.15-7.53-5.24-2.46-.07-4.64.67-6.51,2.23-1.88,1.55-3.31,3.73-4.28,6.52-.98,2.79-1.48,5.71-1.5,8.75Z"/>
    <path class="cls-2" d="M1412.42,501.87c.34-2.58-1.07-4.4-4.25-5.46l-6.5-1.9c-5.48-1.89-8.13-5.02-7.95-9.4.16-3.29,1.66-5.99,4.51-8.1,2.84-2.11,6.19-3.14,10.04-3.09,3.78.05,6.85,1.15,9.21,3.3,2.36,2.15,3.5,4.96,3.4,8.41l-6.22-.04c.05-1.87-.54-3.38-1.76-4.56-1.22-1.17-2.84-1.78-4.87-1.83-2.17-.05-4.03.48-5.6,1.59-1.45,1.04-2.29,2.39-2.52,4.08-.3,2.17,1.02,3.74,3.97,4.73l3.14.86c4.28,1.11,7.33,2.54,9.12,4.32,1.8,1.77,2.63,3.97,2.49,6.6-.14,2.33-.9,4.35-2.28,6.08-1.38,1.73-3.23,3.05-5.53,3.96-2.3.91-4.76,1.33-7.36,1.26-3.96-.05-7.23-1.21-9.81-3.47-2.58-2.27-3.82-5.19-3.73-8.76l6.25.04c0,2.1.67,3.78,2,5.04,1.34,1.27,3.17,1.9,5.49,1.9,2.28.04,4.25-.43,5.91-1.43,1.66-1,2.6-2.38,2.83-4.13Z"/>
    <path class="cls-2" d="M1430.48,508.88c.02-1.08.37-1.97,1.04-2.68.67-.7,1.55-1.08,2.66-1.12,1.06-.05,1.93.28,2.63.97s1.04,1.57,1.04,2.62-.34,1.96-1.04,2.64-1.58,1.04-2.66,1.09c-1.08.05-1.96-.27-2.64-.93s-1.02-1.53-1.02-2.59ZM1438.7,497.79h-5.67l5.84-36.11h6.56l-6.74,36.11Z"/>
  </g>
  <g>
    <path class="cls-4" d="M1501.97,133.76c-11.79-11.99-29.81-14.06-43.41-3.1,8.46,4.68,11.93,9.61,15.68,18.94,4.88,12.14,13.76,21.92,28.21,19.97.61-5.47,5.01-8.69,10.39-8.13,4.61.49,7.86,4.09,8.08,8.54.21,4.15-2.78,8.17-6.62,9.33-4.6,1.38-8.92-1.13-11.27-5.34-9.62,1.06-18.55-.53-26.71-5.96-1.1,1.99-1.35,3.96-1.57,6.05,3.64,2.91,5.22,6.97,4.02,11.43-1.07,4-4.53,7.12-9.31,7.49-5.57.43-10.11-3.32-11.22-8.38-1.18-5.39,1.98-11.07,7.58-12.21,1.04-.21,1.98-.06,2.74-.56,4.12-2.71,1.46-28.85-21.68-32.23-19.19-2.8-36.02,12.14-36.24,31.38-12.56,5.48-20.14,17.77-19.21,31.42.75,10.96,5.89,20.67,14.62,27.75l6.65-7.62c-3.28-3.03-3.45-7.18-1.45-10.3,2.37-3.69,6.85-4.27,10.8-2.6,4.14,1.74,4.55,6.58,3.66,10.02-1.42,5.49-7.24,3.33-10.21,5.12-8.57,5.16-10.74,18.56-7.19,27.52,3.51,8.86,11.82,13.89,20.95,14.58,17.52,1.32,34.13-15.13,36.22-32.35-2.91-.36-14.33-3.09-15.57-.98-1.55,2.64-3.61,4.32-6.43,4.67-2.76.34-5.97-.7-7.6-3.3-1.98-3.16-1.91-7.49.42-10.33s5.5-2.83,8.79-2.28c2.89.48,4.09,4.02,5.97,5.74,4.51,1.87,9.69,1.79,14.56,2.9,1.34-18.04-9.88-31.23-25.28-37.62-1.56-.65-2.75-.19-3.71.99-3.16,3.87-8.28,4.7-12.68,2.52-4.04-2-6.05-6.74-5.07-11.46s5.11-7.58,9.96-7.65c4.41-.06,8.84,3.14,9.9,7.86.37,1.62.84,2.62,2.47,3.19,12.62,4.43,24.02,11.74,31.25,23.66,5.58-4.03,10.9-7.71,17.27-10.74-.5-5.9,3.04-10.66,8.41-11.66,5.61-1.04,11.23,2.33,12.22,8.21.82,4.88-1.83,9.17-5.88,11.02-4.41,2-9.2.99-12.81-2.96-5.75,3.5-12.57,7.78-15.84,14.02,3.14,17.48-.63,34.82-13.87,47.14-9.38,8.73-21.05,13.39-34.01,12.68-22.65-1.24-36.8-19.4-34.95-41.42-4.06-4.82-7.65-9.46-10.38-15.07-10.41-21.44-4.87-46.5,15.03-60.39,4.8-22.32,22.55-36.29,45.42-37.28,16.54-17.21,40.94-21.39,61.12-6.92,21.69-5.26,45.25,1.99,57.38,21.18,32.72,3.4,54.67,32.94,46.62,64.78-2.86,11.3-9.08,19.85-16.45,28.58-3.04,3.6-7.15,21.84-29.91,24.7-5.34.93-10.72.53-16.31.05-10.62,8.18-24.51,9.76-37.09,4.41-3.88,17.67-11.92,33.37-24.85,45.32-22.98,21.25-56.73,27.28-85.53,15.19-16.07-6.75-28.88-17.98-38.1-32.65-7.55-12.01-12.54-24.8-15.35-38.87-6.98-34.8-1.72-70.9,15.18-102.1,16.33-30.14,42.9-53.45,74.62-66.43,33.37-13.66,70.75-14.63,105.2-3.82,25.98,8.15,48.83,23.32,67.14,43.35,10.48,11.46,18.68,24.4,25.4,38.34,6,12.44,9.71,25.04,13.12,38.32,2.59,10.08,7.39,19.15,14.26,26.79,13.89,15.46,37.44,20.8,31.9,32.28-4.25,8.81-20.75,12.41-18.36,20.71.45,1.56,2.3,3.4,4.29,4.26,5.22,2.25,7.93,6.98,5.93,12.47-3,8.23-8.44,8.94-5.6,11.9,1.64,1.71,3.32,3.17,4.59,5.09,2.2,3.31,1.62,7.21-1.46,9.7-8.38,6.78-4.21,14.53-2.72,23.35,1.85,10.93-2,21.53-10.5,28.61-11.48,9.56-28.33,11.78-42.93,14.02l-21.46,3.31c-17.63,2.72-34.2,9.2-49.52,18.57-25.96,15.88-45.84,39.16-58.61,66.68-4.05,8.74-7.16,17.27-10.07,26.42-.43,1.35.18,3.05-1.35,4.15-.74-1.64.53-2.47.76-4.11,5.62-39.01,21.58-75.49,46.52-106,8.29-10.15,17.14-19.16,26.76-28l21.95-20.16c10.64-9.78,19.71-20.33,27.31-32.75,46.17-75.51,20.59-183.8-63.9-218.58-40.34-16.6-86.72-11.8-123.13,11.89-39.7,25.83-62.67,70.54-60.5,117.9.69,15.16,3.24,29.55,9.8,43.43,4.17,8.83,9.34,16.73,16.35,23.6,12.21,11.97,28.3,18.77,45.45,17.92,25.2-1.26,46.86-17.19,56.13-40.47,7.73-19.4,5.63-30.32,7.65-37.8.35-1.28,2.4-.14,2.93.54,4.09,5.3,8.27,10.38,14.02,13.7,9.39,5.43,20.94,3.67,27.65-4.73,6.91,1.26,13.29,1.57,19.9-.1,16.95-4.28,25.95-22.28,18.76-38.27-1.45-3.23-3.47-6.01-6.43-8.11-4.56,5.15-9.26,9.37-14.5,13.44-.75.58-.83,1.69-.53,2.57,1.93,5.6-1.68,11.49-7.55,12.18-4.14.48-8.04-1.38-9.74-4.69-1.86-3.62-1.44-7.79,1.21-10.85,2.41-2.78,6.81-3.74,10.53-2.3,1.75.68,3.02.25,4.35-.9l7.13-6.14,7.11-5.51c-8.12-4.79-16.56-7.88-25.77-8.05-8.08-.15-15.28,2.55-22.58,5.41-1.12.44-2.97-2.3-2.47-3.54,10.04-5.72,21.8-8.58,33.88-8.25-3-7.41-8.4-12.72-13.92-18.09-5.45,3.51-11.92,1.57-14.25-3.73-2.43-5.53.48-11.86,6.65-12.94,3.7-.65,7.23.56,9.33,3.21,2.27,2.88,2.71,6.7,1.07,10.11,8.17,8.19,13.52,11.21,18.62,22.55,14.37,3.29,28.64,10.62,32.98,25.67,8.1-17.91,1.99-37.8-14.27-48.12-7.86-4.99-16.77-7.11-26.15-7.05-8.32-19.78-31.05-26.38-50.82-18.84ZM1537.09,155.36c0-2.23-1.81-4.04-4.04-4.04s-4.04,1.81-4.04,4.04,1.81,4.04,4.04,4.04,4.04-1.81,4.04-4.04ZM1515.77,170.53c0-2.27-1.84-4.11-4.11-4.11s-4.11,1.84-4.11,4.11,1.84,4.11,4.11,4.11,4.11-1.84,4.11-4.11ZM1473.22,182.7c0-2.48-2.01-4.5-4.5-4.5s-4.5,2.01-4.5,4.5,2.01,4.5,4.5,4.5,4.5-2.01,4.5-4.5ZM1433.29,187.77c0-2.52-2.04-4.57-4.57-4.57s-4.57,2.04-4.57,4.57,2.04,4.57,4.57,4.57,4.57-2.04,4.57-4.57ZM1504.4,200.17c0-2.43-1.97-4.41-4.41-4.41s-4.41,1.97-4.41,4.41,1.97,4.41,4.41,4.41,4.41-1.97,4.41-4.41ZM1551.77,216.53c0-2.25-1.83-4.08-4.08-4.08s-4.08,1.83-4.08,4.08,1.83,4.08,4.08,4.08,4.08-1.83,4.08-4.08ZM1421.68,216.56c0-1.97-1.6-3.57-3.57-3.57s-3.57,1.6-3.57,3.57,1.6,3.57,3.57,3.57,3.57-1.6,3.57-3.57ZM1446.08,229.92c0-2.03-1.64-3.67-3.67-3.67s-3.67,1.64-3.67,3.67,1.64,3.67,3.67,3.67,3.67-1.64,3.67-3.67Z"/>
    <circle class="cls-3" cx="1442.23" cy="230.09" r="3.84"/>
    <circle class="cls-3" cx="1468.73" cy="182.7" r="4.5"/>
    <circle class="cls-3" cx="1428.73" cy="187.77" r="4.5"/>
    <circle class="cls-3" cx="1418.11" cy="216.56" r="4.04"/>
    <circle class="cls-3" cx="1499.99" cy="200.17" r="4.41"/>
    <circle class="cls-3" cx="1511.65" cy="170.53" r="4.41"/>
    <circle class="cls-3" cx="1533.06" cy="155.36" r="4.41"/>
    <circle class="cls-3" cx="1547.7" cy="216.53" r="4.41"/>
  </g>
</svg>